<?xml version="1.0" encoding="utf-8"?>
<!-- Generator: Adobe Illustrator 26.0.3, SVG Export Plug-In . SVG Version: 6.00 Build 0)  -->
<svg version="1.1" id="Layer_1" xmlns="http://www.w3.org/2000/svg" xmlns:xlink="http://www.w3.org/1999/xlink" x="0px" y="0px"
	 viewBox="0 0 1366 768" style="enable-background:new 0 0 1366 768;" xml:space="preserve">
<g>
	<g>
		<g>
			<g>
				<path d="M765.16,308.847c3.032-0.362,5.937-0.377,8.606,0c1.545-3.544,1.811-9.652,0.421-16.303
					c-2.065-9.886-4.861-15.869-10.638-14.937c-5.777,0.931-5.99,8.093-3.925,17.98C760.786,301.149,762.856,305.902,765.16,308.847
					z"/>
				<path d="M715.566,316.671c4.134,1.813,6.673,3.016,7.668,1.965c0.639-0.656,0.448-1.906-0.539-3.518
					c-2.039-3.33-6.236-6.707-10.688-8.603c-9.105-3.919-19.962-2.616-28.339,3.403c-2.765,2.026-5.388,4.833-5.012,6.537
					c0.121,0.551,0.535,0.966,1.506,1.102c2.28,0.261,10.248-3.767,19.424-4.329C706.066,312.831,711.433,314.857,715.566,316.671z"
					/>
				<path d="M707.251,321.414c-5.382,0.85-8.353,2.625-10.258,4.275c-1.628,1.423-2.633,2.993-2.624,4.099
					c0.004,0.526,0.232,0.828,0.412,0.981c0.245,0.216,0.536,0.337,0.886,0.337c1.216,0,3.939-1.092,3.939-1.092
					c7.492-2.682,12.434-2.358,17.332-1.799c2.706,0.303,3.984,0.472,4.578-0.456c0.175-0.266,0.388-0.843-0.153-1.721
					C720.101,323.992,714.665,320.534,707.251,321.414z"/>
				<path d="M748.413,338.83c3.655,1.796,7.68,1.091,8.99-1.574c1.309-2.666-0.592-6.283-4.247-8.079
					c-3.656-1.796-7.68-1.091-8.99,1.575C742.857,333.417,744.758,337.034,748.413,338.83z"/>
				<path d="M771.913,318.296c-2.969-0.05-5.433,3.211-5.502,7.283c-0.069,4.072,2.282,7.414,5.252,7.464
					c2.97,0.05,5.433-3.21,5.502-7.282C777.234,321.688,774.883,318.347,771.913,318.296z"/>
				<path d="M572.457,391.723c-0.739-0.926-1.953-0.643-3.127-0.37c-0.821,0.191-1.751,0.408-2.77,0.39
					c-2.184-0.042-4.034-0.975-5.073-2.571c-1.353-2.077-1.274-5.174,0.219-8.721c0.201-0.477,0.438-1.009,0.696-1.588
					c2.382-5.343,6.368-14.286,1.893-22.808c-3.368-6.414-8.861-10.408-15.467-11.247c-6.341-0.803-12.87,1.548-17.033,6.142
					c-6.569,7.248-7.596,17.109-6.326,20.593c0.466,1.276,1.194,1.629,1.723,1.701c1.117,0.151,2.77-0.663,3.806-3.447
					c0.075-0.201,0.173-0.512,0.297-0.906c0.461-1.473,1.32-4.214,2.727-6.412c1.697-2.651,4.339-4.476,7.441-5.14
					c3.16-0.676,6.389-0.074,9.093,1.696c4.601,3.012,6.373,8.651,4.409,14.031c-1.015,2.782-2.665,8.103-2.302,12.474
					c0.736,8.849,6.178,12.402,11.068,12.779c4.755,0.18,8.077-2.489,8.918-4.441C573.145,392.726,572.727,392.023,572.457,391.723z
					"/>
				<path d="M846.841,375.541c-0.181-0.64-1.359-4.949-2.979-10.142s-3.297-8.848-3.297-8.848c6.496-9.727,6.612-18.426,5.75-23.352
					c-0.923-6.108-3.465-11.312-8.59-16.691c-5.125-5.38-15.604-10.889-30.334-15.024c-1.685-0.473-7.24-1.997-7.729-2.146
					c-0.038-0.319-0.406-18.22-0.742-25.904c-0.244-5.555-0.721-14.226-3.411-22.769c-3.207-11.561-8.794-21.678-15.768-28.151
					c19.246-19.951,31.26-41.927,31.232-60.782c-0.055-36.257-44.584-47.229-99.458-24.506c-0.058,0.024-11.544,4.895-11.627,4.936
					c-0.051-0.051-21.019-20.624-21.335-20.899c-62.564-54.57-258.177,162.859-195.636,215.666l13.668,11.578
					c-3.546,9.184-4.938,19.706-3.801,31.022c1.461,14.533,8.958,28.465,21.108,39.23c11.535,10.219,26.7,16.688,41.417,16.675
					c24.338,56.085,79.945,90.491,145.146,92.428c69.94,2.077,128.65-30.741,153.251-89.693c1.609-4.138,8.438-22.78,8.438-39.235
					C862.146,382.394,852.796,375.541,846.841,375.541z M560.688,419.682c-2.124,0.362-4.293,0.506-6.478,0.454
					c-21.124-0.567-43.942-19.584-46.209-42.137c-2.506-24.929,10.231-44.114,32.784-48.662c2.696-0.543,5.954-0.857,9.467-0.675
					c12.636,0.692,31.256,10.395,35.51,37.921C589.53,390.962,583.546,415.784,560.688,419.682z M537.097,314.424
					c-14.039,2.729-26.413,10.686-33.98,21.678c-4.523-3.772-12.948-11.074-14.436-13.919
					c-12.08-22.938,13.184-67.536,30.832-92.721c43.616-62.243,111.929-109.355,143.553-100.808
					c5.14,1.455,22.167,21.197,22.167,21.197s-31.611,17.539-60.925,41.987C584.81,222.252,554.972,266.456,537.097,314.424z
					 M758.827,410.361c0.459-0.194,0.776-0.719,0.723-1.24c-0.065-0.64-0.637-1.106-1.277-1.041c0,0-33.092,4.899-64.352-6.546
					c3.405-11.067,12.459-7.07,26.144-5.966c24.666,1.47,46.774-2.133,63.112-6.822c14.158-4.064,32.753-12.074,47.195-23.473
					c4.872,10.701,6.592,22.478,6.592,22.478s3.771-0.675,6.922,1.265c2.978,1.832,5.162,5.642,3.67,15.491
					c-3.037,18.401-10.859,33.335-24.004,47.073c-8.001,8.613-17.715,16.102-28.829,21.547c-5.903,3.101-12.189,5.783-18.827,7.951
					c-49.554,16.185-100.277-1.609-116.628-39.819c-1.305-2.872-2.408-5.879-3.279-9.025c-6.968-25.18-1.052-55.389,17.439-74.404
					c0.002-0.002-0.003-0.007-0.001-0.009c1.14-1.211,2.303-2.637,2.303-4.432c0-1.501-0.954-3.084-1.781-4.206
					c-6.469-9.384-28.878-25.373-24.38-56.317c3.23-22.229,22.671-37.886,40.798-36.958c1.531,0.079,3.065,0.173,4.593,0.264
					c7.855,0.465,14.708,1.472,21.175,1.743c10.822,0.467,20.555-1.106,32.08-10.71c3.889-3.241,7.006-6.049,12.281-6.943
					c0.553-0.094,1.933-0.589,4.69-0.459c2.814,0.15,5.492,0.923,7.9,2.525c9.241,6.149,10.552,21.042,11.031,31.937
					c0.272,6.219,1.025,21.265,1.282,25.585c0.588,9.877,3.183,11.27,8.436,12.999c2.954,0.972,5.696,1.697,9.737,2.832
					c12.233,3.434,19.485,6.919,24.056,11.394c2.726,2.797,3.994,5.769,4.385,8.603c1.443,10.522-8.169,23.521-33.614,35.331
					c-27.814,12.91-61.557,16.179-84.871,13.582c-1.788-0.199-8.146-0.92-8.168-0.923c-18.649-2.513-29.287,21.589-18.095,38.101
					c7.213,10.641,26.861,17.567,46.519,17.57c45.071,0.007,79.716-19.241,92.602-35.864c0.385-0.497,0.424-0.551,1.031-1.469
					c0.633-0.956,0.111-1.482-0.679-0.942c-10.529,7.204-57.294,35.804-107.316,27.201c0,0-6.078-0.999-11.627-3.159
					c-4.409-1.715-13.637-5.959-14.759-15.428C733.409,422.162,758.827,410.361,758.827,410.361z M694.881,402.812
					c0.001,0.003,0.004,0.007,0.005,0.01c0.003,0.006,0.005,0.014,0.009,0.02C694.89,402.832,694.886,402.822,694.881,402.812z
					 M617.654,229.207c15.505-17.918,34.595-33.497,51.694-42.244c0.591-0.302,1.219,0.339,0.898,0.921
					c-1.357,2.459-3.972,7.723-4.801,11.718c-0.129,0.622,0.549,1.091,1.074,0.733c10.638-7.252,29.144-15.021,45.375-16.02
					c0.698-0.043,1.034,0.851,0.48,1.277c-2.468,1.893-5.168,4.513-7.14,7.164c-0.336,0.451-0.02,1.101,0.542,1.105
					c11.398,0.08,27.466,4.07,37.938,9.943c0.709,0.398,0.204,1.77-0.588,1.589c-15.845-3.632-41.783-6.387-68.725,0.184
					c-24.053,5.867-42.412,14.925-55.805,24.666C617.919,230.734,617.106,229.84,617.654,229.207z"/>
			</g>
		</g>
	</g>
	<g>
		<path d="M528.168,592.819c-7.698,0-11.507,6.058-13.254,9.965c-0.976,2.182-1.249,3.907-2.041,3.907
			c-1.116,0-0.316-1.499-1.229-4.824c-1.201-4.375-4.822-9.048-12.515-9.048c-8.088,0-11.551,6.833-13.193,10.588
			c-1.123,2.567-1.124,3.284-1.988,3.284c-1.251,0-0.214-2.039,0.349-4.436c1.109-4.72,0.266-8.327,0.266-8.327h-12.821v48.209h17.5
			c0,0,0-20.148,0-23.986c0-4.732,1.979-10.735,5.371-10.735c3.919,0,4.704,3.01,4.704,8.584c0,5.054,0,26.147,0,26.147h17.571
			c0,0,0-20.27,0-23.996c0-4.212,1.719-10.735,5.397-10.735c3.974,0,4.678,4.229,4.678,8.584s0,26.137,0,26.137h17.255
			c0,0,0-19.102,0-28.35C544.217,601.207,539.782,592.819,528.168,592.819z"/>
		<path d="M825.203,592.819c-7.698,0-11.507,6.058-13.254,9.965c-0.976,2.182-1.249,3.907-2.041,3.907
			c-1.116,0-0.369-1.905-1.229-4.824c-1.282-4.352-4.472-9.048-12.515-9.048c-8.088,0-11.551,6.833-13.193,10.588
			c-1.123,2.567-1.124,3.284-1.988,3.284c-1.251,0-0.214-2.039,0.349-4.436c1.109-4.72,0.266-8.327,0.266-8.327h-12.821v48.209h17.5
			c0,0,0-20.148,0-23.986c0-4.732,1.979-10.735,5.371-10.735c3.919,0,4.704,3.01,4.704,8.584c0,5.054,0,26.147,0,26.147h17.57
			c0,0,0-20.27,0-23.996c0-4.212,1.719-10.735,5.397-10.735c3.974,0,4.678,4.229,4.678,8.584s0,26.137,0,26.137h17.255
			c0,0,0-19.102,0-28.35C841.252,601.207,836.817,592.819,825.203,592.819z"/>
		<path d="M574.098,592.829c-13.406,0-23.024,4.928-23.024,4.928v14.487c0,0,10.623-6.107,19.239-6.107
			c6.878,0,7.723,3.71,7.41,6.788c0,0-1.983-0.525-8.037-0.525c-14.263,0-21.463,6.482-21.463,16.877
			c0,9.86,8.092,13.981,14.91,13.981c9.948,0,14.321-6.684,15.665-9.857c0.932-2.2,1.102-3.683,1.94-3.683
			c0.954,0,0.633,1.063,0.587,3.253c-0.081,3.835,0.1,6.735,0.708,9.177h13.19v-23.726
			C595.223,603.61,589.981,592.829,574.098,592.829z M569.837,630.871c-4.184,0.966-6.354-0.323-6.354-3.097
			c0-3.799,3.93-5.321,9.539-5.321c2.473,0,4.799,0.213,4.799,0.213C577.821,624.294,574.29,629.843,569.837,630.871z"/>
		<rect x="624.049" y="579.334" width="17.5" height="62.814"/>
		<path d="M660.812,618.044c0-4.335,4.027-8.278,11.42-8.278c8.056,0,14.535,3.878,15.988,4.759v-16.767
			c0,0-5.118-4.928-17.699-4.928c-13.263,0-24.307,7.761-24.307,24.464c0,16.704,10.023,25.965,24.271,25.965
			c11.13,0,17.764-6.115,17.764-6.115v-15.925c-2.099,1.175-7.947,5.233-15.936,5.233
			C663.853,626.451,660.812,622.56,660.812,618.044z"/>
		<path d="M723.67,592.829c-10.131,0-13.984,9.601-14.762,11.267c-0.778,1.667-1.163,2.626-1.8,2.605
			c-1.106-0.036-0.335-2.046,0.096-3.348c0.815-2.459,2.541-8.911,2.541-16.841c0-5.379-0.727-7.179-0.727-7.179h-15.107v62.814
			h17.5c0,0,0-20.079,0-23.986c0-3.907,1.559-10.735,5.968-10.735c3.652,0,4.795,2.706,4.795,8.154c0,5.448,0,26.567,0,26.567h17.5
			c0,0,0-14.693,0-25.518C739.674,604.255,737.622,592.829,723.67,592.829z"/>
		<path d="M745.362,593.995v48.154h17.5v-48.154c0,0-2.942,1.721-8.732,1.721S745.362,593.995,745.362,593.995z"/>
		<ellipse cx="754.06" cy="585.838" rx="10.712" ry="6.991"/>
		<path d="M600.886,593.995v48.154h17.5v-48.154c0,0-2.942,1.721-8.732,1.721C603.863,595.715,600.886,593.995,600.886,593.995z"/>
		<ellipse cx="609.584" cy="585.838" rx="10.712" ry="6.991"/>
		<path d="M876.021,592.819c-8.996,0-13.118,6.746-14.911,10.588c-1.185,2.539-1.124,3.284-1.988,3.284
			c-1.251,0-0.214-2.039,0.349-4.436c1.109-4.72,0.266-8.327,0.266-8.327h-12.821v61.524h17.5c0,0,0-10.067,0-19.506
			c2.071,3.513,5.907,7.266,11.82,7.266c12.654,0,19.023-10.707,19.023-25.173C895.259,601.644,887.634,592.819,876.021,592.819z
			 M871.218,631.789c-4.015,0-6.967-5.09-6.967-12.182c0-6.888,3.033-12.179,6.828-12.179c4.87,0,6.946,4.466,6.946,12.179
			C878.025,627.631,876.111,631.789,871.218,631.789z"/>
	</g>
</g>
</svg>
